<?xml version="1.0" encoding="UTF-8"?>
<svg width="16px" height="14px" viewBox="0 0 16 14" version="1.1" xmlns="http://www.w3.org/2000/svg" xmlns:xlink="http://www.w3.org/1999/xlink">
    <!-- Generator: Sketch 48.2 (47327) - http://www.bohemiancoding.com/sketch -->
    <title>ico-menu</title>
    <desc>Created with Sketch.</desc>
    <defs></defs>
    <g id="Menú" stroke="none" stroke-width="1" fill="none" fill-rule="evenodd" transform="translate(-14.000000, -15.000000)">
        <g id="menu" fill="#FFFFFF" fill-rule="nonzero">
            <path d="M29,21 C29.6,21 30,21.4 30,22 C30,22.6 29.6,23 29,23 L15,23 C14.4,23 14,22.6 14,22 C14,21.4 14.4,21 15,21 L29,21 Z M15,17 C14.4,17 14,16.6 14,16 C14,15.4 14.4,15 15,15 L29,15 C29.6,15 30,15.4 30,16 C30,16.6 29.6,17 29,17 L15,17 Z M29,27 C29.6,27 30,27.4 30,28 C30,28.6 29.6,29 29,29 L15,29 C14.4,29 14,28.6 14,28 C14,27.4 14.4,27 15,27 L29,27 Z" id="ico-menu"></path>
        </g>
    </g>
</svg>